<svg width="14" height="11" viewBox="0 0 14 11" fill="none" xmlns="http://www.w3.org/2000/svg">
<path d="M3.63648 6.30397C3.60439 6.30411 3.57259 6.29792 3.5429 6.28575C3.51321 6.27359 3.48622 6.25568 3.46346 6.23306C2.96851 5.74946 2.69551 5.10277 2.69551 4.41141C2.69551 3.72004 2.96851 3.07264 3.46346 2.58904C3.69995 2.34661 3.98276 2.1542 4.29509 2.02325C4.60742 1.8923 4.9429 1.82548 5.28157 1.82677H5.28228C5.97506 1.82677 6.62246 2.09906 7.10677 2.5933C7.15284 2.64031 7.17835 2.70371 7.17769 2.76953C7.17702 2.83536 7.15024 2.89822 7.10322 2.9443C7.05621 2.99037 6.99281 3.01588 6.92699 3.01522C6.86116 3.01455 6.7983 2.98777 6.75222 2.94075C6.56115 2.74449 6.33254 2.58866 6.08001 2.48256C5.82748 2.37646 5.55619 2.32224 5.28228 2.32313H5.28157C4.72422 2.32313 4.20304 2.54224 3.81375 2.94004C3.41169 3.33359 3.19188 3.85477 3.19188 4.4107C3.19188 4.96663 3.41169 5.48852 3.80949 5.8771C3.83291 5.89982 3.8516 5.92694 3.86449 5.9569C3.87739 5.98687 3.88423 6.01909 3.88462 6.05171C3.88502 6.08433 3.87896 6.11671 3.8668 6.14698C3.85463 6.17725 3.8366 6.20482 3.81375 6.2281C3.79088 6.2521 3.76338 6.2712 3.7329 6.28424C3.70243 6.29728 3.66962 6.30399 3.63648 6.30397ZM3.91728 1.37153C3.86746 1.37162 3.81879 1.35663 3.77766 1.32853C3.73652 1.30044 3.70486 1.26055 3.68682 1.21411L3.34646 0.351859C3.33237 0.321215 3.32467 0.288019 3.32384 0.2543C3.32301 0.220582 3.32906 0.187047 3.34162 0.155745C3.35418 0.124443 3.37299 0.0960299 3.39691 0.0722411C3.42082 0.0484524 3.44933 0.0297871 3.48069 0.0173854C3.51206 0.00498365 3.54562 -0.000894486 3.57934 0.000110113C3.61305 0.00111471 3.64621 0.0089811 3.67678 0.0232285C3.70735 0.0374758 3.7347 0.0578052 3.75715 0.0829755C3.7796 0.108146 3.79669 0.137628 3.80737 0.169623L4.14773 1.03188C4.16301 1.06949 4.16878 1.11029 4.16452 1.15066C4.16026 1.19103 4.14611 1.22973 4.12332 1.26332C4.10053 1.29692 4.0698 1.32437 4.03385 1.34324C3.99791 1.36212 3.95787 1.37184 3.91728 1.37153ZM1.04687 6.46352C0.989577 6.46287 0.934257 6.44248 0.890253 6.40578C0.846249 6.36907 0.816257 6.31831 0.80534 6.26206C0.794424 6.20581 0.80325 6.14751 0.830331 6.09702C0.857411 6.04652 0.901086 6.00691 0.953983 5.98488L1.79709 5.64452C1.85812 5.62002 1.92638 5.62075 1.98687 5.64654C2.04737 5.67234 2.09515 5.72108 2.11973 5.78208C2.13207 5.81223 2.13832 5.84453 2.13811 5.87712C2.13791 5.9097 2.13125 5.94192 2.11853 5.97191C2.1058 6.00191 2.08726 6.02909 2.06398 6.05188C2.0407 6.07468 2.01313 6.09263 1.98287 6.10472L1.13976 6.44508C1.11035 6.45738 1.07876 6.46365 1.04687 6.46352ZM1.90913 3.31586C1.87732 3.31589 1.8458 3.30987 1.81624 3.29813L0.973129 2.95777C0.911914 2.93313 0.862994 2.88519 0.837129 2.82448C0.811264 2.76378 0.810574 2.69528 0.83521 2.63407C0.859847 2.57286 0.907791 2.52394 0.968497 2.49807C1.0292 2.47221 1.0977 2.47152 1.15891 2.49615L2.00202 2.83652C2.12966 2.88828 2.19064 3.03222 2.13887 3.15986C2.12066 3.20592 2.089 3.24542 2.04803 3.27325C2.00705 3.30107 1.95866 3.31592 1.90913 3.31586ZM6.70826 1.39139C6.66716 1.39143 6.62669 1.38126 6.59049 1.3618C6.55429 1.34234 6.52349 1.3142 6.50086 1.27989C6.47822 1.24559 6.46446 1.2062 6.46081 1.16526C6.45715 1.12432 6.46373 1.08312 6.47993 1.04535L6.84157 0.202951C6.8687 0.144286 6.91764 0.0985176 6.97799 0.0753799C7.03834 0.0522422 7.10533 0.0535603 7.16472 0.0790539C7.22412 0.104548 7.27122 0.152205 7.29602 0.211892C7.32082 0.271578 7.32135 0.338584 7.29751 0.398659L6.93588 1.24106C6.91684 1.28566 6.88512 1.32369 6.84465 1.35042C6.80418 1.37714 6.75675 1.39139 6.70826 1.39139Z" fill="#0056B3"/>
<path d="M11.4074 10.3535H4.45902C4.41817 10.3533 4.37799 10.3431 4.34202 10.3237C3.15216 10.1763 2.26367 9.1892 2.26367 8.00005C2.26367 6.71376 3.32022 5.66643 4.61927 5.66643C4.67104 5.66643 4.7228 5.66856 4.77385 5.67281C4.81711 3.92632 6.24451 2.51807 7.99313 2.51807C9.76869 2.51807 11.2131 3.96958 11.2131 5.75365C11.2131 5.78556 11.2124 5.81747 11.2103 5.84938C11.514 5.83648 11.8172 5.88509 12.1017 5.99229C12.3861 6.09949 12.646 6.26307 12.8657 6.47321C13.0854 6.68335 13.2603 6.93571 13.38 7.21515C13.4997 7.49458 13.5617 7.79533 13.5623 8.09933C13.5608 8.67734 13.338 9.23283 12.9398 9.65177C12.5416 10.0707 11.9981 10.3213 11.4209 10.3521L11.4074 10.3535ZM4.53702 9.85645H11.4003C11.8495 9.83082 12.2719 9.63484 12.5816 9.30847C12.8912 8.9821 13.0647 8.54991 13.0667 8.10003C13.0657 7.63412 12.8801 7.18759 12.5504 6.85834C12.2208 6.52909 11.774 6.34399 11.3081 6.34361C11.1819 6.34361 11.0741 6.36134 10.9671 6.37978C10.9285 6.38575 10.889 6.38264 10.8519 6.3707C10.8147 6.35875 10.7808 6.3383 10.7529 6.31097C10.7251 6.28364 10.7039 6.25019 10.6913 6.21326C10.6786 6.17634 10.6747 6.13696 10.6799 6.09827C10.7019 5.95361 10.7182 5.85363 10.7182 5.75365C10.7182 4.24329 9.49569 3.01443 7.99384 3.01443C6.49198 3.01443 5.26951 4.24329 5.26951 5.75365C5.26951 5.78485 5.26951 5.8508 5.27731 5.87349C5.29029 5.91382 5.29294 5.95678 5.28501 5.9984C5.27708 6.04003 5.25883 6.079 5.23193 6.11174C5.20491 6.14382 5.17038 6.1687 5.1314 6.18416C5.09242 6.19963 5.05022 6.2052 5.00856 6.20038C4.87526 6.18123 4.74904 6.1628 4.62069 6.1628C3.59535 6.1628 2.76074 6.98676 2.76074 7.99934C2.76074 8.94031 3.50955 9.74796 4.46327 9.83731C4.48866 9.84007 4.5135 9.84652 4.53702 9.85645Z" fill="#0056B3"/>
</svg>
