<svg width="20" height="20" viewBox="0 0 20 20" fill="none" xmlns="http://www.w3.org/2000/svg">
<path opacity="0.16" d="M17 9.00024C17 11.122 16.1571 13.1568 14.6569 14.6571C13.1566 16.1574 11.1217 17.0002 9 17.0002C6.87827 17.0002 4.84344 16.1574 3.34315 14.6571C1.84285 13.1568 1 11.122 1 9.00024C1 6.87851 1.84285 4.84368 3.34315 3.34339C4.84344 1.8431 6.87827 1.00024 9 1.00024C11.1217 1.00024 13.1566 1.8431 14.6569 3.34339C16.1571 4.84368 17 6.87851 17 9.00024Z" fill="#ADAEC2"/>
<path d="M19.0002 19.0002L14.6572 14.6572M14.6572 14.6572C15.4001 13.9143 15.9894 13.0324 16.3914 12.0618C16.7935 11.0911 17.0004 10.0508 17.0004 9.00021C17.0004 7.9496 16.7935 6.90929 16.3914 5.93866C15.9894 4.96803 15.4001 4.08609 14.6572 3.34321C13.9143 2.60032 13.0324 2.01103 12.0618 1.60898C11.0911 1.20693 10.0508 1 9.00021 1C7.9496 1 6.90929 1.20693 5.93866 1.60898C4.96803 2.01103 4.08609 2.60032 3.34321 3.34321C1.84288 4.84354 1 6.87842 1 9.00021C1 11.122 1.84288 13.1569 3.34321 14.6572C4.84354 16.1575 6.87842 17.0004 9.00021 17.0004C11.122 17.0004 13.1569 16.1575 14.6572 14.6572Z" stroke="#ADAEC2" stroke-width="2" stroke-linecap="round" stroke-linejoin="round"/>
</svg>
